<svg xmlns="http://www.w3.org/2000/svg" fill="white" viewBox="0 0 370 280" xmlns:v="https://vecta.io/nano"><path d="M237.77 275.24c-27.45-.94-54.59-3.89-81.43-9.1-22.25-4.31-44.28-9.74-66.55-13.97-16.03-3.04-32.32-4.67-48.41-7.41-8.32-1.41-16.5-3.7-24.66-5.93-2.82-.77-5.53-2.33-8-3.96-9.33-6.15-10.83-17.32-3.54-25.87 5.34-6.26 12.46-9.87 19.93-12.82 17.42-6.89 35.72-9.93 54.22-11.95 7.06-.77 14.17-1.19 21.26-1.52 2.21-.1 2.92-1.13 3.6-2.94 17.64-47.4 41.56-91.41 72.16-131.67 6.99-9.19 15.24-17.47 23.33-25.75 11.39-11.65 25.74-16.06 41.8-17.24 30.25-2.22 57.21 5.7 81.25 24.01 2.08 1.58 4.4 3.01 6.07 4.96 13.7 16.03 23.79 34.1 29.52 54.43.73 2.58.73 6.62-.79 8.3-2.56 2.82-6.33.9-9.27-.82-2.57-1.5-4.98-3.3-7.34-5.13-2.96-2.29-5.89-4.63-8.65-7.16-8.98-8.24-19.2-9.78-30.16-5.13-9.73 4.13-19.21 8.87-28.74 13.45-2.52 1.21-4.5 2.11-6.77-.74-1.06-1.33-3.46-1.86-5.35-2.19-2.31-.4-4.72-.21-7.09-.26-4.04-.07-6.54-2.03-7.43-6-.14-.61-.3-1.21-.49-1.8-.82-2.52-2.59-3.69-5.16-3.2-2.64.5-3.61 2.41-3.49 4.97.34 7.28 6 13.59 13.26 14.56 2.45.33 4.96.27 7.45.32 4.1.07 5.93 1.37 6.13 4.91 1.22 21.14 6.25 41.64 10.29 62.3 1.08 5.5 2.49 10.97 3.15 16.52.25 2.16-.45 5.4-1.96 6.62-4.19 3.39-8.87 6.28-13.66 8.79-3.21 1.68-4.79 3.38-3.75 6.13 1.02 2.71 3.55 3.69 6.83 2.27 6.96-3.02 13.09-7.15 17.5-13.55.6-.87 2.2-1.76 3.14-1.59 22.91 4.31 45.79 8.83 67.01 19.03 3.99 1.92 7.79 4.52 11.15 7.42 6.55 5.65 7.09 12.27 1.27 18.62-3.4 3.71-7.44 7.15-11.8 9.63-23.71 13.48-49.03 22.82-76.01 26.91-13.15 2.01-26.54 2.42-39.82 3.55zm-33.57-51.31l18.71-.01c2.92-.01 4.93-1.42 4.94-4.42.01-3.21-2.1-4.58-5.19-4.55l-2.62.05c-18.72.35-37.42.22-56.01-2.37-11.74-1.64-23.43-3.57-33.88-9.76-3.45-2.04-6.13-1.81-7.42.84-1.51 3.1-.16 5.5 2.69 6.74 6.03 2.63 12.01 5.6 18.32 7.3 19.78 5.3 40.11 6.17 60.46 6.18z"/></svg>